# xmcd
#
# Track frame offsets:
#	150
#	13484
#	36816
#	47199
#	62228
#	78067
#	89359
#	104855
#	115167
#	127892
#	140064
#	150137
#	169733
#
# Disc length: 2483 seconds
#
# Revision: 1
# Processed by: cddbd v1.4PL0 Copyright (c) Steve Scherf et al.
# Submitted via: audiograbber 1.81.03
#
DISCID=ab09b10d
DTITLE=Rhythm Bombs - One Gear Up
DYEAR=1900
DGENRE=Blues
TTITLE0=Boogie Burst
TTITLE1=One Gear Up
TTITLE2=Things (Ain't What They Used To Be)
TTITLE3=This Girl Of Mnie
TTITLE4=It's Been A Long Time
TTITLE5=Runnin' Out Of Time
TTITLE6=Oh Baby
TTITLE7=Queen Of Tease
TTITLE8=Jimmy Joe's Store
TTITLE9=Swingin' Sue
TTITLE10=Stompin'
TTITLE11=Disconnect My Phone
TTITLE12=Goin' Mad Blues
EXTD=
EXTT0=
EXTT1=
EXTT2=
EXTT3=
EXTT4=
EXTT5=
EXTT6=
EXTT7=
EXTT8=
EXTT9=
EXTT10=
EXTT11=
EXTT12=
PLAYORDER=
